G04 #@! TF.FileFunction,Legend,Top*
%FSLAX46Y46*%
G04 Gerber Fmt 4.6, Leading zero omitted, Abs format (unit mm)*
G04 Created by KiCad (PCBNEW 4.0.7) date Sun Mar  4 16:18:10 2018*
%MOMM*%
%LPD*%
G01*
G04 APERTURE LIST*
%ADD10C,0.100000*%
%ADD11C,0.120000*%
%ADD12C,0.150000*%
G04 APERTURE END LIST*
D10*
D11*
X154450000Y-85800000D02*
X155550000Y-85800000D01*
X155550000Y-85800000D02*
X155550000Y-83200000D01*
X154450000Y-85800000D02*
X154450000Y-83200000D01*
X151950000Y-92200000D02*
X152900000Y-92200000D01*
X152900000Y-92200000D02*
X152900000Y-92600000D01*
X148050000Y-92200000D02*
X147100000Y-92200000D01*
X147100000Y-92200000D02*
X147100000Y-92600000D01*
X152900000Y-96300000D02*
X152900000Y-96700000D01*
X152900000Y-96700000D02*
X150000000Y-96700000D01*
X147100000Y-96300000D02*
X147100000Y-96700000D01*
X147100000Y-96700000D02*
X150000000Y-96700000D01*
X148050000Y-92200000D02*
X148050000Y-90700000D01*
X154680000Y-88500000D02*
X154680000Y-89500000D01*
X153320000Y-89500000D02*
X153320000Y-88500000D01*
X144320000Y-84500000D02*
X144320000Y-83500000D01*
X145680000Y-83500000D02*
X145680000Y-84500000D01*
X151500000Y-87500000D02*
X148500000Y-87500000D01*
X151500000Y-84500000D02*
X147500000Y-84500000D01*
D12*
X154002381Y-84738095D02*
X153002381Y-84738095D01*
X153002381Y-84500000D01*
X153050000Y-84357142D01*
X153145238Y-84261904D01*
X153240476Y-84214285D01*
X153430952Y-84166666D01*
X153573810Y-84166666D01*
X153764286Y-84214285D01*
X153859524Y-84261904D01*
X153954762Y-84357142D01*
X154002381Y-84500000D01*
X154002381Y-84738095D01*
X154002381Y-83214285D02*
X154002381Y-83785714D01*
X154002381Y-83500000D02*
X153002381Y-83500000D01*
X153145238Y-83595238D01*
X153240476Y-83690476D01*
X153288095Y-83785714D01*
X149666667Y-88952381D02*
X149666667Y-89666667D01*
X149619047Y-89809524D01*
X149523809Y-89904762D01*
X149380952Y-89952381D01*
X149285714Y-89952381D01*
X150666667Y-89952381D02*
X150095238Y-89952381D01*
X150380952Y-89952381D02*
X150380952Y-88952381D01*
X150285714Y-89095238D01*
X150190476Y-89190476D01*
X150095238Y-89238095D01*
X153002381Y-89166666D02*
X152526190Y-89500000D01*
X153002381Y-89738095D02*
X152002381Y-89738095D01*
X152002381Y-89357142D01*
X152050000Y-89261904D01*
X152097619Y-89214285D01*
X152192857Y-89166666D01*
X152335714Y-89166666D01*
X152430952Y-89214285D01*
X152478571Y-89261904D01*
X152526190Y-89357142D01*
X152526190Y-89738095D01*
X153002381Y-88214285D02*
X153002381Y-88785714D01*
X153002381Y-88500000D02*
X152002381Y-88500000D01*
X152145238Y-88595238D01*
X152240476Y-88690476D01*
X152288095Y-88785714D01*
X146902381Y-84166666D02*
X146426190Y-84500000D01*
X146902381Y-84738095D02*
X145902381Y-84738095D01*
X145902381Y-84357142D01*
X145950000Y-84261904D01*
X145997619Y-84214285D01*
X146092857Y-84166666D01*
X146235714Y-84166666D01*
X146330952Y-84214285D01*
X146378571Y-84261904D01*
X146426190Y-84357142D01*
X146426190Y-84738095D01*
X145997619Y-83785714D02*
X145950000Y-83738095D01*
X145902381Y-83642857D01*
X145902381Y-83404761D01*
X145950000Y-83309523D01*
X145997619Y-83261904D01*
X146092857Y-83214285D01*
X146188095Y-83214285D01*
X146330952Y-83261904D01*
X146902381Y-83833333D01*
X146902381Y-83214285D01*
X149238095Y-83052381D02*
X149238095Y-83861905D01*
X149285714Y-83957143D01*
X149333333Y-84004762D01*
X149428571Y-84052381D01*
X149619048Y-84052381D01*
X149714286Y-84004762D01*
X149761905Y-83957143D01*
X149809524Y-83861905D01*
X149809524Y-83052381D01*
X150809524Y-84052381D02*
X150238095Y-84052381D01*
X150523809Y-84052381D02*
X150523809Y-83052381D01*
X150428571Y-83195238D01*
X150333333Y-83290476D01*
X150238095Y-83338095D01*
M02*
