G04 #@! TF.FileFunction,Copper,L1,Top,Signal*
%FSLAX46Y46*%
G04 Gerber Fmt 4.6, Leading zero omitted, Abs format (unit mm)*
G04 Created by KiCad (PCBNEW 4.0.7) date Sun Mar  4 16:18:10 2018*
%MOMM*%
%LPD*%
G01*
G04 APERTURE LIST*
%ADD10C,0.100000*%
%ADD11R,0.900000X1.200000*%
%ADD12R,0.800000X1.700000*%
%ADD13R,2.200000X3.100000*%
%ADD14R,1.600000X0.300000*%
%ADD15C,0.250000*%
G04 APERTURE END LIST*
D10*
D11*
X155000000Y-85100000D03*
X155000000Y-82900000D03*
D12*
X148750000Y-91550000D03*
X150000000Y-91550000D03*
X151250000Y-91550000D03*
D13*
X146250000Y-94450000D03*
X153750000Y-94450000D03*
D11*
X154000000Y-90100000D03*
X154000000Y-87900000D03*
X145000000Y-82900000D03*
X145000000Y-85100000D03*
D14*
X148300000Y-85025000D03*
X148300000Y-85675000D03*
X148300000Y-86325000D03*
X148300000Y-86975000D03*
X151700000Y-86975000D03*
X151700000Y-86325000D03*
X151700000Y-85675000D03*
X151700000Y-85025000D03*
D15*
X153599700Y-85675000D02*
X154174700Y-85100000D01*
X151700000Y-85675000D02*
X153599700Y-85675000D01*
X155000000Y-85100000D02*
X154174700Y-85100000D01*
X145000000Y-82900000D02*
X155000000Y-82900000D01*
X145000000Y-85100000D02*
X145825300Y-85100000D01*
X148750000Y-91550000D02*
X148750000Y-90324700D01*
X147100200Y-85100000D02*
X145825300Y-85100000D01*
X147124700Y-85075500D02*
X147100200Y-85100000D01*
X147124700Y-85025000D02*
X147124700Y-85075500D01*
X147100200Y-88674900D02*
X148750000Y-90324700D01*
X147100200Y-85100000D02*
X147100200Y-88674900D01*
X148300000Y-85025000D02*
X147124700Y-85025000D01*
X151860200Y-92775300D02*
X150000000Y-92775300D01*
X153560200Y-91075300D02*
X151860200Y-92775300D01*
X154000000Y-91075300D02*
X153560200Y-91075300D01*
X154000000Y-90100000D02*
X154000000Y-91075300D01*
X150000000Y-91550000D02*
X150000000Y-92775300D01*
X151250000Y-89355800D02*
X151250000Y-91550000D01*
X150524700Y-88630500D02*
X151250000Y-89355800D01*
X150524700Y-85025000D02*
X150524700Y-88630500D01*
X151700000Y-85025000D02*
X150524700Y-85025000D01*
X152875300Y-87600600D02*
X153174700Y-87900000D01*
X152875300Y-86325000D02*
X152875300Y-87600600D01*
X151700000Y-86325000D02*
X152875300Y-86325000D01*
X154000000Y-87900000D02*
X153174700Y-87900000D01*
M02*
