G04 #@! TF.FileFunction,Profile,NP*
%FSLAX46Y46*%
G04 Gerber Fmt 4.6, Leading zero omitted, Abs format (unit mm)*
G04 Created by KiCad (PCBNEW 4.0.7) date Sun Mar  4 16:18:10 2018*
%MOMM*%
%LPD*%
G01*
G04 APERTURE LIST*
%ADD10C,0.100000*%
%ADD11C,0.150000*%
G04 APERTURE END LIST*
D10*
D11*
X143000000Y-90000000D02*
X143000000Y-97000000D01*
X144000000Y-90000000D02*
X143000000Y-90000000D01*
X143000000Y-88000000D02*
X144000000Y-88000000D01*
X143000000Y-82000000D02*
X143000000Y-88000000D01*
X149000000Y-81000000D02*
X144000000Y-81000000D01*
X149000000Y-82000000D02*
X149000000Y-81000000D01*
X151000000Y-81000000D02*
X151000000Y-82000000D01*
X156000000Y-81000000D02*
X151000000Y-81000000D01*
X157000000Y-88000000D02*
X157000000Y-82000000D01*
X156000000Y-88000000D02*
X157000000Y-88000000D01*
X157000000Y-90000000D02*
X156000000Y-90000000D01*
X157000000Y-97000000D02*
X157000000Y-90000000D01*
X144000000Y-98000000D02*
X156000000Y-98000000D01*
X156000000Y-88000000D02*
G75*
G03X156000000Y-90000000I1000000J-1000000D01*
G01*
X149000000Y-82000000D02*
G75*
G03X151000000Y-82000000I1000000J1000000D01*
G01*
X144000000Y-90000000D02*
G75*
G03X144000000Y-88000000I-1000000J1000000D01*
G01*
X143000000Y-82000000D02*
G75*
G03X144000000Y-81000000I0J1000000D01*
G01*
X144000000Y-98000000D02*
G75*
G03X143000000Y-97000000I-1000000J0D01*
G01*
X157000000Y-97000000D02*
G75*
G03X156000000Y-98000000I0J-1000000D01*
G01*
X156000000Y-81000000D02*
G75*
G03X157000000Y-82000000I1000000J0D01*
G01*
M02*
